<svg width="18" height="18" viewBox="0 0 18 18" fill="none" xmlns="http://www.w3.org/2000/svg">
<path d="M6.05751 15.7265C7.27924 16.7147 8.80367 17.2526 10.375 17.25C11.4118 17.25 12.3963 17.0204 13.2804 16.6079L16.4278 17.2363C16.5387 17.2583 16.6533 17.2527 16.7615 17.2199C16.8697 17.1871 16.9682 17.1281 17.0481 17.0481C17.1281 16.9682 17.1871 16.8697 17.2199 16.7615C17.2527 16.6533 17.2583 16.5387 17.2363 16.4278L16.6079 13.2818C17.0204 12.3976 17.25 11.4118 17.25 10.375C17.25 8.74013 16.6794 7.24 15.7265 6.05888C15.9222 7.07685 15.9254 8.12246 15.7361 9.14163C16.0244 10.4016 15.8614 11.7227 15.2755 12.8748C15.2049 13.0129 15.1831 13.1709 15.2136 13.323L15.6866 15.6866L13.3216 15.2136C13.17 15.1834 13.0125 15.2052 12.8748 15.2755C11.7225 15.8623 10.4006 16.0254 9.14026 15.7361C8.1211 15.9256 7.07546 15.9224 6.05751 15.7265ZM0.750006 7.625C0.750567 6.1373 1.23369 4.68992 2.12684 3.50015C3.01999 2.31039 4.27497 1.44244 5.70338 1.02661C7.13178 0.610785 8.65654 0.669519 10.0487 1.19399C11.4409 1.71847 12.6254 2.68039 13.4244 3.93533C14.2234 5.19028 14.5937 6.67054 14.4798 8.15388C14.3659 9.63721 13.774 11.0436 12.7928 12.1619C11.8116 13.2801 10.4942 14.05 9.03823 14.3558C7.58229 14.6616 6.06645 14.4869 4.71826 13.8579L1.57226 14.4863C1.46135 14.5083 1.34672 14.5027 1.23851 14.4699C1.13029 14.4371 1.03185 14.3781 0.951889 14.2981C0.871931 14.2182 0.812929 14.1197 0.780113 14.0115C0.747297 13.9033 0.741678 13.7887 0.763756 13.6778L1.39213 10.5304C0.967847 9.62065 0.748636 8.62881 0.750006 7.625ZM7.62501 10.21C7.39709 10.21 7.1785 10.3005 7.01734 10.4617C6.85617 10.6229 6.76563 10.8415 6.76563 11.0694C6.76563 11.2973 6.85617 11.5159 7.01734 11.677C7.1785 11.8382 7.39709 11.9288 7.62501 11.9288C7.85293 11.9288 8.07151 11.8382 8.23268 11.677C8.39384 11.5159 8.48438 11.2973 8.48438 11.0694C8.48438 10.8415 8.39384 10.6229 8.23268 10.4617C8.07151 10.3005 7.85293 10.21 7.62501 10.21ZM7.62501 3.50413C6.18401 3.50413 5.06201 4.62888 5.07713 6.19225C5.07895 6.37459 5.15314 6.54873 5.28336 6.67638C5.41358 6.80402 5.58917 6.8747 5.77151 6.87288C5.95384 6.87106 6.12799 6.79687 6.25563 6.66665C6.38327 6.53643 6.45395 6.36084 6.45213 6.1785C6.44388 5.38238 6.94713 4.87913 7.62501 4.87913C8.27401 4.87913 8.79788 5.41813 8.79788 6.18538C8.79788 6.46313 8.70163 6.6185 8.30288 6.93338L7.92201 7.229C7.22626 7.7845 6.93751 8.21488 6.93751 9C6.93719 9.1718 7.00121 9.3375 7.11696 9.46445C7.2327 9.59141 7.39179 9.67043 7.56289 9.68596C7.73398 9.70148 7.90469 9.65238 8.0414 9.54833C8.1781 9.44427 8.2709 9.29281 8.30151 9.12375L8.31663 8.90925C8.34001 8.70575 8.45413 8.56 8.79238 8.29325L9.17326 7.99763C9.87863 7.43388 10.1729 6.99113 10.1729 6.18538C10.1729 4.66738 9.04263 3.50413 7.62501 3.50413Z" fill="#42434B"/>
</svg>
