<svg xmlns="http://www.w3.org/2000/svg" xmlns:xlink="http://www.w3.org/1999/xlink" width="380.071" height="263.102" viewBox="0 0 380.071 263.102">
  <defs>
    <style>
      .cls-1, .cls-10 {
        fill: #fff;
      }

      .cls-2 {
        fill: #eef2ff;
      }

      .cls-3 {
        fill: #f5f7fe;
      }

      .cls-4 {
        fill: #5931ea;
      }

      .cls-5 {
        fill: #f5db4a;
      }

      .cls-6 {
        fill: rgba(225,229,251,0.33);
      }

      .cls-7 {
        fill: #a1aeef;
      }

      .cls-8 {
        fill: rgba(89,49,234,0.21);
      }

      .cls-11, .cls-13, .cls-16, .cls-20, .cls-22, .cls-23, .cls-9 {
        fill: none;
      }

      .cls-9 {
        stroke: #d8dcfd;
        stroke-width: 0.964px;
      }

      .cls-13, .cls-23, .cls-9 {
        stroke-miterlimit: 10;
      }

      .cls-10 {
        font-size: 7px;
        font-family: Montserrat-Black, Montserrat;
        font-weight: 800;
      }

      .cls-11, .cls-16 {
        stroke: #fff;
      }

      .cls-11, .cls-16, .cls-20, .cls-22 {
        stroke-linecap: round;
        stroke-linejoin: round;
      }

      .cls-11 {
        stroke-width: 0.993px;
      }

      .cls-12 {
        fill: #dd5213;
      }

      .cls-13, .cls-20, .cls-22 {
        stroke: #000;
      }

      .cls-13 {
        stroke-width: 0.974px;
      }

      .cls-14 {
        fill: #e6a57d;
      }

      .cls-15 {
        fill: #d8dcfd;
      }

      .cls-16 {
        stroke-width: 1.172px;
      }

      .cls-17 {
        fill: #101010;
      }

      .cls-18 {
        fill: #2d2d2d;
      }

      .cls-19 {
        clip-path: url(#clip-path);
      }

      .cls-20 {
        stroke-width: 0.734px;
      }

      .cls-21 {
        fill: #e9cd44;
      }

      .cls-22 {
        stroke-width: 0.406px;
      }

      .cls-23 {
        stroke: #070c09;
        stroke-width: 0.739px;
      }

      .cls-24 {
        fill: #3dae23;
      }
    </style>
    <clipPath id="clip-path">
      <path id="Path_1338" data-name="Path 1338" class="cls-1" d="M532.155,175.436s2.509.594,2.617,2.085c.137,1.879-2.181,1.528-2.181,1.528S530.4,177.253,532.155,175.436Z" transform="translate(-531.475 -175.436)"/>
    </clipPath>
  </defs>
  <g id="Group_1671" data-name="Group 1671" transform="translate(-1289.648 -342.246)">
    <g id="Group_1650" data-name="Group 1650" transform="translate(1289.648 342.245)">
      <g id="Group_1601" data-name="Group 1601" transform="translate(11.515 0)">
        <g id="Group_1576" data-name="Group 1576" transform="translate(0 0)">
          <circle id="Ellipse_199" data-name="Ellipse 199" class="cls-2" cx="9.659" cy="9.659" r="9.659" transform="translate(299.105 220.739)"/>
          <path id="Path_1366" data-name="Path 1366" class="cls-3" d="M36.166,0A36.166,36.166,0,1,1,0,36.166,36.166,36.166,0,0,1,36.166,0Z" transform="translate(0 127.868) rotate(-50.328)"/>
          <path id="Path_1300" data-name="Path 1300" class="cls-4" d="M287.034,296.332a3.384,3.384,0,1,1-3.383-3.384A3.383,3.383,0,0,1,287.034,296.332Z" transform="translate(-276.942 -118.441)"/>
          <path id="Path_1301" data-name="Path 1301" class="cls-5" d="M653.036,263.37a3.965,3.965,0,1,1-3.964-3.964A3.964,3.964,0,0,1,653.036,263.37Z" transform="translate(-293.083 -116.957)"/>
          <circle id="Ellipse_201" data-name="Ellipse 201" class="cls-4" cx="3.743" cy="3.743" r="3.743" transform="translate(179.679 5.737)"/>
          <circle id="Ellipse_202" data-name="Ellipse 202" class="cls-2" cx="8.487" cy="8.487" r="8.487" transform="translate(86.464 230.758) rotate(-45)"/>
          <circle id="Ellipse_203" data-name="Ellipse 203" class="cls-6" cx="32.416" cy="32.416" r="32.416" transform="translate(271.793 23.012) rotate(-20.79)"/>
          <path id="Path_1302" data-name="Path 1302" class="cls-7" d="M335,339.313l-29.119-4.329,10.79,28.5Z" transform="translate(-278.075 -120.301)"/>
        </g>
        <g id="Group_1594" data-name="Group 1594" transform="translate(43.201 30.129)">
          <g id="Group_1577" data-name="Group 1577">
            <path id="Path_1303" data-name="Path 1303" class="cls-8" d="M590.27,295.126V163.681a21.8,21.8,0,0,0-21.8-21.8H343.783a21.8,21.8,0,0,0-21.8,21.8V295.126a21.8,21.8,0,0,0,21.8,21.794H568.475A21.8,21.8,0,0,0,590.27,295.126Z" transform="translate(-321.988 -141.886)"/>
            <rect id="Rectangle_643" data-name="Rectangle 643" class="cls-1" width="161.712" height="253.696" rx="15.699" transform="translate(261.679 6.661) rotate(90)"/>
          </g>
          <g id="Group_1593" data-name="Group 1593" transform="translate(26.187 12.267)">
            <g id="Group_1591" data-name="Group 1591" transform="translate(0 14.85)">
              <g id="Group_1581" data-name="Group 1581">
                <g id="Group_1578" data-name="Group 1578">
                  <rect id="Rectangle_644" data-name="Rectangle 644" class="cls-9" width="110.22" height="117.204" rx="8.697"/>
                </g>
                <g id="Group_1579" data-name="Group 1579" transform="translate(119.536)">
                  <path id="Rectangle_645" data-name="Rectangle 645" class="cls-9" d="M8.7,0H94.718a8.7,8.7,0,0,1,8.7,8.7V58.606a8.7,8.7,0,0,1-8.7,8.7H8.7a8.7,8.7,0,0,1-8.7-8.7V8.7A8.7,8.7,0,0,1,8.7,0Z"/>
                </g>
                <g id="Group_1580" data-name="Group 1580" transform="translate(119.536 76.68)">
                  <path id="Rectangle_646" data-name="Rectangle 646" class="cls-9" d="M8.7,0H94.718a8.7,8.7,0,0,1,8.7,8.7v23.02a8.7,8.7,0,0,1-8.7,8.7H8.7a8.7,8.7,0,0,1-8.7-8.7V8.7A8.7,8.7,0,0,1,8.7,0Z"/>
                </g>
              </g>
              <g id="Group_1590" data-name="Group 1590" transform="translate(14.049 4.05)">
                <g id="Group_1582" data-name="Group 1582" transform="translate(0 72.911)">
                  <path id="Path_1368" data-name="Path 1368" class="cls-4" d="M3.359,0H78.633a3.359,3.359,0,0,1,3.359,3.359V18.615a3.359,3.359,0,0,1-3.359,3.359H3.359A3.359,3.359,0,0,1,0,18.615V3.359A3.359,3.359,0,0,1,3.359,0Z"/>
                  <text id="Shop_now" data-name="Shop now" class="cls-10" transform="translate(21.313 13.211)"><tspan x="0" y="0">Shop now</tspan></text>
                </g>
                <g id="Group_1589" data-name="Group 1589">
                  <g id="Group_1587" data-name="Group 1587" transform="translate(0 6.298)">
                    <g id="Group_1583" data-name="Group 1583">
                      <path id="Rectangle_648" data-name="Rectangle 648" class="cls-7" d="M4.7,0H77.292a4.7,4.7,0,0,1,4.7,4.7V53.383a4.7,4.7,0,0,1-4.7,4.7H4.7a4.7,4.7,0,0,1-4.7-4.7V4.7A4.7,4.7,0,0,1,4.7,0Z"/>
                    </g>
                    <g id="Group_1586" data-name="Group 1586" transform="translate(26.256 9.272)">
                      <g id="Group_1585" data-name="Group 1585">
                        <g id="Group_1584" data-name="Group 1584">
                          <path id="Path_1304" data-name="Path 1304" class="cls-1" d="M418.4,202.855h-5.078v-3.831a8.151,8.151,0,0,0-6.777-8.149,7.991,7.991,0,0,0-9.184,7.891v4.089h-5.078a.725.725,0,0,0-.725.725V221.1a7.146,7.146,0,0,0,7.146,7.146h13.276a7.146,7.146,0,0,0,7.145-7.146v-17.52A.725.725,0,0,0,418.4,202.855Zm-19.587-4.089a6.541,6.541,0,0,1,7.992-6.368,6.653,6.653,0,0,1,5.066,6.57v3.887H398.813ZM417.675,221.1a5.7,5.7,0,0,1-5.694,5.7H398.7a5.7,5.7,0,0,1-5.7-5.7V204.306h4.353v5.212a2.175,2.175,0,0,0-1.37,2.643,2.152,2.152,0,0,0,1.506,1.5,2.174,2.174,0,0,0,1.315-4.141v-5.212h13.059v5.212a2.176,2.176,0,1,0,1.452,0v-5.212h4.353V221.1Z" transform="translate(-391.558 -190.787)"/>
                        </g>
                      </g>
                    </g>
                  </g>
                  <g id="Group_1588" data-name="Group 1588" transform="translate(70.042)">
                    <circle id="Ellipse_204" data-name="Ellipse 204" class="cls-5" cx="8.511" cy="8.511" r="8.511"/>
                    <path id="Path_1305" data-name="Path 1305" class="cls-11" d="M442.626,183.369l3.186,2.328,3.791-4.814" transform="translate(-437.603 -174.779)"/>
                  </g>
                </g>
              </g>
            </g>
            <g id="Group_1592" data-name="Group 1592" transform="translate(10.073)">
              <path id="Path_1306" data-name="Path 1306" class="cls-12" d="M366.195,157.855a3.134,3.134,0,1,1-3.134-3.134A3.134,3.134,0,0,1,366.195,157.855Z" transform="translate(-359.927 -154.721)"/>
              <path id="Path_1307" data-name="Path 1307" class="cls-5" d="M378.938,157.855a3.133,3.133,0,1,1-3.134-3.134A3.134,3.134,0,0,1,378.938,157.855Z" transform="translate(-360.491 -154.721)"/>
              <path id="Path_1308" data-name="Path 1308" class="cls-7" d="M391.682,157.855a3.134,3.134,0,1,1-3.134-3.134A3.134,3.134,0,0,1,391.682,157.855Z" transform="translate(-361.055 -154.721)"/>
            </g>
          </g>
        </g>
        <g id="Group_1600" data-name="Group 1600" transform="translate(321.581 98.419)">
          <g id="Group_1599" data-name="Group 1599" transform="translate(0 0)">
            <g id="Group_1597" data-name="Group 1597">
              <path id="Path_1310" data-name="Path 1310" class="cls-4" d="M637.092,222.618H617.9a4.64,4.64,0,0,1-4.64-4.64h0a4.639,4.639,0,0,1,4.64-4.64h19.2a4.64,4.64,0,0,1,4.64,4.64h0A4.641,4.641,0,0,1,637.092,222.618Z" transform="translate(-613.255 -213.338)"/>
            </g>
            <g id="Group_1598" data-name="Group 1598" transform="translate(7.959 3.437)">
              <path id="Path_1311" data-name="Path 1311" class="cls-1" d="M623.957,218.15a1.188,1.188,0,1,1-1.191-1.183A1.188,1.188,0,0,1,623.957,218.15Z" transform="translate(-621.582 -216.935)"/>
              <path id="Path_1312" data-name="Path 1312" class="cls-1" d="M629.285,218.134a1.188,1.188,0,1,1-1.191-1.184A1.187,1.187,0,0,1,629.285,218.134Z" transform="translate(-621.818 -216.935)"/>
              <path id="Path_1313" data-name="Path 1313" class="cls-1" d="M634.613,218.117a1.187,1.187,0,1,1-1.191-1.183A1.187,1.187,0,0,1,634.613,218.117Z" transform="translate(-622.054 -216.934)"/>
            </g>
          </g>
        </g>
      </g>
      <g id="Group_1635" data-name="Group 1635" transform="translate(0 43.6)">
        <g id="Group_1634" data-name="Group 1634" transform="translate(116.057)">
          <g id="Group_1603" data-name="Group 1603" transform="translate(0 95.43)">
            <g id="Group_1602" data-name="Group 1602">
              <circle id="Ellipse_206" data-name="Ellipse 206" class="cls-7" cx="7.182" cy="7.182" r="7.182" transform="translate(66.916 109.36)"/>
              <circle id="Ellipse_207" data-name="Ellipse 207" class="cls-7" cx="7.182" cy="7.182" r="7.182" transform="translate(24.506 109.36)"/>
              <path id="Path_1314" data-name="Path 1314" class="cls-13" d="M525.063,255.828l-16.445,3.347a8.789,8.789,0,0,0-6.972,6.6l-14.6,61.009H405.3a11.456,11.456,0,0,1-10.969-8.154L386.169,283l113.5-8.946" transform="translate(-386.169 -255.828)"/>
              <path id="Path_1315" data-name="Path 1315" class="cls-13" d="M391.624,307.8l102.1-5.966-12.276,50.4a19.415,19.415,0,0,1-18.9,14.982H402.982" transform="translate(-386.41 -257.864)"/>
              <line id="Line_153" data-name="Line 153" class="cls-13" x1="9.846" y2="50.806" transform="translate(79.209 20.15)"/>
              <line id="Line_154" data-name="Line 154" class="cls-13" x2="5.477" y2="45.718" transform="translate(24.506 25.238)"/>
              <line id="Line_155" data-name="Line 155" class="cls-13" y2="48.222" transform="translate(56.263 22.735)"/>
            </g>
          </g>
          <g id="Group_1633" data-name="Group 1633" transform="translate(90.078)">
            <g id="Group_1612" data-name="Group 1612" transform="translate(52.121 80.297)">
              <g id="Group_1607" data-name="Group 1607" transform="translate(22.95)">
                <g id="Group_1606" data-name="Group 1606" transform="translate(59.437 69.065)">
                  <path id="Path_1316" data-name="Path 1316" class="cls-14" d="M621.15,322.482l6.124-10.225,23.373,8.207-5.37,9.116Z" transform="translate(-621.15 -312.257)"/>
                  <g id="Group_1605" data-name="Group 1605" transform="translate(17.269 6.157)">
                    <path id="Path_1317" data-name="Path 1317" d="M647.323,325.5l-.058.089a2.7,2.7,0,0,1-3.064,1.062,4.643,4.643,0,0,0-2.719-.337,2.059,2.059,0,0,0-1.714,2.188c.265,3.618.969,12.4-.453,19.9a5.32,5.32,0,0,0,1.434,4.752l.673.679,18.288-31.281-10.034-3.335a2.142,2.142,0,0,0-2.961.142h0a2.144,2.144,0,0,0-.136,2.794l.644.792A2.187,2.187,0,0,1,647.323,325.5Z" transform="translate(-639.219 -318.699)"/>
                    <path id="Path_1318" data-name="Path 1318" class="cls-15" d="M659.811,322.736a1.1,1.1,0,0,1,1.036.165,1.583,1.583,0,0,1,.4,2.1L644.659,353.5a2.076,2.076,0,0,1-3.136.52h0Z" transform="translate(-639.321 -318.875)"/>
                    <g id="Group_1604" data-name="Group 1604" transform="translate(0.871 14.242)">
                      <path id="Path_1319" data-name="Path 1319" class="cls-16" d="M640.213,334.159s.564-.855,2.855-.448" transform="translate(-640.134 -333.601)"/>
                      <path id="Path_1320" data-name="Path 1320" class="cls-16" d="M640.14,336.584s.565-.855,2.856-.448" transform="translate(-640.13 -333.708)"/>
                      <path id="Path_1321" data-name="Path 1321" class="cls-16" d="M640.13,339.377s.565-.854,2.856-.447" transform="translate(-640.13 -333.832)"/>
                    </g>
                    <path id="Path_1322" data-name="Path 1322" class="cls-12" d="M656.2,320.92s-7.306,8.176-5.959,18.754l9.95-17.015A11.27,11.27,0,0,0,656.2,320.92Z" transform="translate(-639.699 -318.798)"/>
                  </g>
                </g>
                <path id="Path_1323" data-name="Path 1323" class="cls-17" d="M558.962,268.088,571,302.977a13.327,13.327,0,0,0,7.392,8.05l.073.03,49.756,16.3,8.988-19.841-46.951-18.13s-12.171-44.951-16.627-49.392Z" transform="translate(-558.962 -239.995)"/>
              </g>
              <g id="Group_1611" data-name="Group 1611" transform="translate(0 8.426)">
                <g id="Group_1610" data-name="Group 1610" transform="translate(0 95.444)">
                  <path id="Path_1324" data-name="Path 1324" class="cls-14" d="M552.656,348.674l11.918.087,4.792,24.3h-10.58Z" transform="translate(-535.733 -348.674)"/>
                  <g id="Group_1609" data-name="Group 1609" transform="translate(0 17.896)">
                    <path id="Path_1325" data-name="Path 1325" d="M562.393,372.754l-.105-.006a2.7,2.7,0,0,1-2.471-2.1,4.638,4.638,0,0,0-1.089-2.515,2.06,2.06,0,0,0-2.755-.366c-2.982,2.064-10.194,7.131-17.38,9.712a5.322,5.322,0,0,0-3.367,3.647l-.243.924,36.234-.118L569,371.593a2.144,2.144,0,0,0-1.626-2.479h0a2.145,2.145,0,0,0-2.475,1.3l-.357.957A2.189,2.189,0,0,1,562.393,372.754Z" transform="translate(-534.951 -367.398)"/>
                    <path id="Path_1326" data-name="Path 1326" class="cls-15" d="M571.216,382.605a1.1,1.1,0,0,1,.384.976,1.583,1.583,0,0,1-1.608,1.411l-32.972.17a2.075,2.075,0,0,1-2.039-2.438h0Z" transform="translate(-534.95 -368.071)"/>
                    <g id="Group_1608" data-name="Group 1608" transform="translate(12.585 3.25)">
                      <path id="Path_1327" data-name="Path 1327" class="cls-16" d="M552.656,370.8s1.024.053,1.836,2.233" transform="translate(-548.319 -370.798)"/>
                      <path id="Path_1328" data-name="Path 1328" class="cls-16" d="M550.53,371.966s1.024.053,1.836,2.233" transform="translate(-548.225 -370.85)"/>
                      <path id="Path_1329" data-name="Path 1329" class="cls-16" d="M548.118,373.375s1.024.053,1.835,2.234" transform="translate(-548.118 -370.912)"/>
                    </g>
                    <path id="Path_1330" data-name="Path 1330" class="cls-12" d="M571.455,378.067s-10.753-2.145-19.183,4.385l19.711-.063A11.256,11.256,0,0,0,571.455,378.067Z" transform="translate(-535.716 -367.855)"/>
                  </g>
                </g>
                <path id="Path_1331" data-name="Path 1331" class="cls-18" d="M554.1,250.868l-16,44.614a15.97,15.97,0,0,0-.767,7.712l12.786,54.056,21.537-2.764L561.5,301.532s22.006-37.6,21.115-52.721Z" transform="translate(-535.048 -248.811)"/>
              </g>
            </g>
            <g id="Group_1619" data-name="Group 1619" transform="translate(44.027)">
              <path id="Path_1332" data-name="Path 1332" class="cls-14" d="M540.307,188.467l5.729,11.9,8.743-7.08-8.546-13.556Z" transform="translate(-527.093 -157.032)"/>
              <path id="Path_1333" data-name="Path 1333" d="M542.628,193.591l2.225-6.962-4.377,2.542Z" transform="translate(-527.1 -157.337)"/>
              <path id="Path_1334" data-name="Path 1334" class="cls-14" d="M534.817,163.165s-5.594,1.349-5.394,8.491c0,0,.027,2.724.378,10.169.186,3.935,3,8.843,7.926,8.2,2.392-.314,4.862-1.849,7.057-3.809l3.059-3.3c7.031-9.1-.952-22.278-12.209-19.934C535.367,163.035,535.093,163.1,534.817,163.165Z" transform="translate(-526.611 -156.278)"/>
              <path id="Path_1335" data-name="Path 1335" class="cls-14" d="M530.125,177.711l-2.043,4.073a.546.546,0,0,0,.4.882l2.595.235Z" transform="translate(-526.547 -156.942)"/>
              <g id="Group_1616" data-name="Group 1616" transform="translate(4.107 13.325)">
                <g id="Group_1615" data-name="Group 1615" transform="translate(0.667 5.16)">
                  <g id="Group_1614" data-name="Group 1614" transform="translate(0 0.11)">
                    <path id="Path_1336" data-name="Path 1336" class="cls-1" d="M532.155,175.436s2.509.594,2.617,2.085c.137,1.879-2.181,1.528-2.181,1.528S530.4,177.253,532.155,175.436Z" transform="translate(-531.475 -175.436)"/>
                    <g id="Group_1613" data-name="Group 1613" class="cls-19">
                      <path id="Path_1337" data-name="Path 1337" d="M532.5,174.916s1.541,2.678-.286,4.54h0l-1.057-.071-.136-3Z" transform="translate(-531.455 -175.413)"/>
                    </g>
                  </g>
                  <path id="Path_1339" data-name="Path 1339" class="cls-20" d="M531.718,175.321s2.511.246,3.065,2.194" transform="translate(-531.486 -175.321)"/>
                </g>
                <path id="Path_1340" data-name="Path 1340" class="cls-1" d="M530.778,184.7l2.447-.043S531.573,187.1,530.778,184.7Z" transform="translate(-530.778 -170.574)"/>
                <path id="Path_1341" data-name="Path 1341" d="M537.065,173.457a.941.941,0,0,1-.783-.014,23.985,23.985,0,0,0-3.4-1.233c-2.735-.781-1.445-2.479-.031-2.27a7.965,7.965,0,0,1,4.317,2.509C537.6,173.044,537.359,173.324,537.065,173.457Z" transform="translate(-530.8 -169.922)"/>
              </g>
              <path id="Path_1342" data-name="Path 1342" class="cls-12" d="M546.134,178.083s-1.64,4.724,4.036,7.116c0,0,12.641-17.334-5.932-23.191l-1.03,1.784Z" transform="translate(-527.221 -156.248)"/>
              <path id="Path_1343" data-name="Path 1343" class="cls-12" d="M551.649,164.818c-.027.818-.866,7.015-.866,7.015l-6.876,5.921s-3.906-5.54-2.485-11.087C541.423,166.668,551.75,161.741,551.649,164.818Z" transform="translate(-527.128 -156.327)"/>
              <g id="Group_1618" data-name="Group 1618" transform="translate(15.737 17.595)">
                <g id="Group_1617" data-name="Group 1617">
                  <path id="Path_1344" data-name="Path 1344" class="cls-14" d="M549.711,177.275a3.4,3.4,0,1,1-3.879-2.844A3.4,3.4,0,0,1,549.711,177.275Z" transform="translate(-542.947 -174.39)"/>
                </g>
              </g>
              <path id="Path_1345" data-name="Path 1345" class="cls-12" d="M543.028,159.54s10.912-.518,13.389,4.864c3.68,7.993-1.08,13.658-6.255,20.685l.706-13.445Z" transform="translate(-527.213 -156.138)"/>
              <path id="Path_1346" data-name="Path 1346" class="cls-12" d="M541.824,167.976s-3.43-2.668-7.137-1.932-7.846,1.15-8.2-3.2c-.448-5.537,16.969-12.151,28.167-.083l-8.866,4.658Z" transform="translate(-526.481 -155.981)"/>
            </g>
            <g id="Group_1632" data-name="Group 1632" transform="translate(0 25.096)">
              <g id="Group_1626" data-name="Group 1626">
                <g id="Group_1622" data-name="Group 1622">
                  <g id="Group_1620" data-name="Group 1620">
                    <path id="Path_1347" data-name="Path 1347" class="cls-14" d="M487.337,199.019c4.71,2.584,8.657,2.371,10.467-1.25a7.33,7.33,0,0,0-3.278-9.834c-3.621-1.81-6.73-1.018-9.077,2.281C483.608,192.8,483.324,196.818,487.337,199.019Z" transform="translate(-480.582 -182.449)"/>
                    <path id="Path_1348" data-name="Path 1348" class="cls-14" d="M488.241,187.967s.588-2.4,4.758-1.862c3.814.491,7.759,4.786,4.986,11.621Z" transform="translate(-480.763 -182.407)"/>
                    <path id="Path_1349" data-name="Path 1349" class="cls-14" d="M488.43,189.661l-7.317-4.926a1.4,1.4,0,0,1-.534-1.862h0a1.209,1.209,0,0,1,1.553-.532l8.7,3.867Z" transform="translate(-480.416 -182.239)"/>
                  </g>
                  <g id="Group_1621" data-name="Group 1621" transform="translate(12.027 12.065)">
                    <path id="Path_1350" data-name="Path 1350" class="cls-14" d="M525.846,204.837l-29.1-9.974L493,200.112l27.425,16.276c3.931,2.28,8-.5,9.333-4.841h0C530.794,208.168,529.057,206.317,525.846,204.837Z" transform="translate(-493 -194.863)"/>
                  </g>
                </g>
                <g id="Group_1625" data-name="Group 1625" transform="translate(34.873 14.442)">
                  <g id="Group_1623" data-name="Group 1623" transform="translate(0 0.552)">
                    <path id="Path_1351" data-name="Path 1351" class="cls-14" d="M552,198.933l-29.9,6.821c-3.9,1.631-6.152,2.072-4.8,6.074h0a8.045,8.045,0,0,0,10.167,5.051L556.51,212.5c4.015-1.341,6.76-4.214,6.254-8.417h0C562.057,198.208,557.457,196.649,552,198.933Z" transform="translate(-516.904 -197.927)"/>
                  </g>
                  <g id="Group_1624" data-name="Group 1624" transform="translate(18.394)">
                    <path id="Path_1352" data-name="Path 1352" class="cls-21" d="M536.15,202.717l5.416,16.191,17.9-2.6-1.281-18.962Z" transform="translate(-536.15 -197.349)"/>
                  </g>
                </g>
              </g>
              <g id="Group_1627" data-name="Group 1627" transform="translate(62.435 11.157)">
                <path id="Path_1353" data-name="Path 1353" class="cls-5" d="M545.787,199.838l5.637,56.712c23.487,4.152,33.489-6.714,33.489-6.714s-6.494-19.379-11.327-33.127c-5.079-14.447-12.608-19.787-18.566-22.8Z" transform="translate(-545.744 -193.913)"/>
                <path id="Path_1354" data-name="Path 1354" class="cls-14" d="M555.019,193.913s-4.395,9.135-8.73,10.767l-.547-4.971,5.9-4.165Z" transform="translate(-545.742 -193.913)"/>
              </g>
              <g id="Group_1631" data-name="Group 1631" transform="translate(38.52 14.88)">
                <g id="Group_1628" data-name="Group 1628" transform="translate(0 36.013)">
                  <path id="Path_1355" data-name="Path 1355" class="cls-14" d="M561.135,235.488,532.348,246.31l-.03,6.674,33.712-6.291Z" transform="translate(-521.232 -235.488)"/>
                  <path id="Path_1356" data-name="Path 1356" class="cls-14" d="M520.912,253.319c1.466-4.126,6.058-5.227,6.058-5.227L533.2,246.3l2.828,2.952-2.061,1.965c.582,2.754-.252,7.284-3.506,9.084C526.706,262.381,519.445,257.445,520.912,253.319Z" transform="translate(-520.719 -235.967)"/>
                </g>
                <g id="Group_1630" data-name="Group 1630" transform="translate(27.944)">
                  <path id="Path_1357" data-name="Path 1357" class="cls-14" d="M553.01,216.27l6.472,25.42c.717,2.814,4.6,4.584,7.451,4.041h0a5.494,5.494,0,0,0,4.369-6.424l-4.871-25.593Z" transform="translate(-550.091 -198.512)"/>
                  <g id="Group_1629" data-name="Group 1629">
                    <path id="Path_1358" data-name="Path 1358" class="cls-5" d="M557.686,197.842a5.755,5.755,0,0,0-4.728,1.805,10.884,10.884,0,0,0-2.868,9.511,92,92,0,0,0,4.137,16.384l15.021-2.417S567.682,199.017,557.686,197.842Z" transform="translate(-549.956 -197.808)"/>
                    <path id="Path_1359" data-name="Path 1359" class="cls-22" d="M555.533,225.875h0a132.117,132.117,0,0,1-3.155-14.514" transform="translate(-550.063 -198.408)"/>
                  </g>
                </g>
              </g>
            </g>
          </g>
        </g>
        <line id="Line_156" data-name="Line 156" class="cls-23" x2="376.677" transform="translate(0 219.133)"/>
      </g>
    </g>
    <g id="Group_1651" data-name="Group 1651" transform="translate(1328.85 358.526)">
      <path id="Path_1367" data-name="Path 1367" class="cls-24" d="M15.575,0A15.575,15.575,0,1,1,0,15.575,15.575,15.575,0,0,1,15.575,0Z"/>
      <path id="Path_1305-2" data-name="Path 1305" class="cls-11" d="M442.626,185.433l5.83,4.26,6.937-8.81" transform="translate(-433.434 -169.712)"/>
    </g>
  </g>
</svg>
